<svg width="44" height="22" viewBox="0 0 44 22" fill="none" xmlns="http://www.w3.org/2000/svg">
<path d="M0 4.5L0.297626 3H14V4.5H0Z" fill="white"/>
<path d="M2 10.5L2.31061 8H14L14 10.5H2Z" fill="white"/>
<path d="M7 6.5L7.24351 5H16V6.5H7Z" fill="white"/>
<path d="M5 15L5.18263 14H14V15H5Z" fill="white"/>
<path d="M30 16L31.3195 5.5H40.5L42.5 11.5L43.5 12L42.5 19H4V17.5H10.5L11 16H30Z" fill="white"/>
<path d="M13.5 0H31L29 15H11.5L13.5 0Z" fill="white"/>
<path d="M20.1558 19.4681C19.3601 21.0905 17.5011 21.8739 16.0646 21.3241C14.6725 20.7914 14.0583 19.1342 14.8442 17.5319C15.6399 15.9095 17.4989 15.1261 18.9354 15.6759C20.3275 16.2086 20.9417 17.8658 20.1558 19.4681Z" fill="white" stroke="#3AA700"/>
<path d="M39.1558 19.4681C38.3601 21.0905 36.5011 21.8739 35.0646 21.3241C33.6725 20.7914 33.0583 19.1342 33.8442 17.5319C34.6399 15.9095 36.4989 15.1261 37.9354 15.6759C39.3275 16.2086 39.9417 17.8658 39.1558 19.4681Z" fill="white" stroke="#3AA700"/>
</svg>
